<svg width="66" height="40" xmlns="http://www.w3.org/2000/svg"><g fill="none" fill-rule="evenodd"><path d="M0 0h66v40H0z"/><path d="M7.072 30.9H21.3l-.767 5.1H0L6.987 2h6.305l-6.22 28.9zm56.66-5.61v.085c-.512 3.74-1.875 6.375-4.005 8.075-2.215 1.7-5.112 2.55-8.861 2.55-3.579 0-6.305-1.02-8.18-3.145-1.96-2.125-2.556-5.1-1.96-8.925l1.45-9.775c.68-3.995 2.215-7.055 4.685-9.095C49.161 3.02 52.23 2 55.808 2c3.663 0 6.39.85 8.18 2.635 1.788 1.785 2.385 4.42 1.788 7.99v.085h-6.56c.34-2.21.17-3.655-.426-4.505-.682-.85-1.875-1.19-3.75-1.19a5.118 5.118 0 0 0-4.004 1.7 10.186 10.186 0 0 0-2.13 5.355l-1.533 9.86c-.426 2.55-.256 4.25.51 5.44.682 1.105 1.96 1.7 3.835 1.7 1.534 0 2.812-.51 3.664-1.36.852-.85 1.533-2.295 1.874-4.42h6.475zM36.295 2L25.561 36h2.385L38.682 2h-2.386z" fill="#F60" fill-rule="nonzero"/></g></svg>